<svg version="1.1" id="Calque_1" xmlns="http://www.w3.org/2000/svg" xmlns:xlink="http://www.w3.org/1999/xlink" x="0px" y="0px" width="77px" height="66px" viewBox="0 0 77 66" style="enable-background:new 0 0 77 66;" xml:space="preserve">
	<g>
		<path class="st0" d="M59.6,28.8L58.3,26l0,0L59.6,28.8L59.6,28.8z M21.6,30.9c-0.9-0.4-1.9,0-2.3,0.9l-8.5,18.4
			c-0.4,0.9,0,1.9,0.8,2.3c0.2,0.1,0.5,0.2,0.7,0.2c0.7,0,1.3-0.4,1.6-1l8.5-18.4C22.9,32.3,22.5,31.3,21.6,30.9z M73.7,50.2
			l-0.3,0.2l0.1,0.2c0.7,1.5,0.7,3.1,0.2,4.6c-0.6,1.5-1.7,2.7-3.2,3.4l-14.8,6.8C54.8,65.8,54,66,53.1,66l0,0
			c-2.4,0-4.5-1.4-5.5-3.5l-9.1-19.7l-9,19.6c-1,2.1-3.2,3.5-5.5,3.5c-0.9,0-1.7-0.2-2.5-0.6L6.6,58.5c-1.5-0.7-2.6-1.9-3.2-3.4
			c-0.6-1.5-0.5-3.2,0.2-4.6l0.1-0.2l-0.3-0.2c-3-1.4-4.4-5-3-8.1l7-15.2c0.7-1.5,1.9-2.6,3.4-3.2c1.5-0.6,3.2-0.5,4.6,0.2l0.3,0.1
			l0.5-1.2l1.4-3c1.4-3.1,5.2-4.5,8.3-3.1c0,0,0.1,0,0.1,0c2.2-1.3,4.9-1.4,7.2-0.3c2.1,0.9,3.6,2.7,4.2,4.8c0.4,0.1,0.8,0.2,1.2,0.3
			c0.3-0.1,0.6-0.2,0.8-0.2c0.7-2.1,2.2-3.9,4.2-4.8c2.4-1.1,5-0.9,7.2,0.3c0,0,0.1,0,0.1,0c1.5-0.7,3.2-0.8,4.8-0.2
			c1.6,0.6,2.8,1.7,3.5,3.2l1.4,3l0,0l0.5,1.2l0.3-0.2c1.5-0.7,3.1-0.7,4.6-0.2c1.5,0.6,2.7,1.7,3.4,3.2l7,15.2
			C78.1,45.2,76.7,48.8,73.7,50.2z M45.9,25.1c-0.5,0.8-1.6,1-2.4,0.4c-0.1-0.1-0.3-0.2-0.4-0.3c0.2,0.3,0.3,0.7,0.5,1.1
			c0.3,0.8,0.5,1.6,0.5,2.4l12.9-5.9l-0.7-1.4c-0.3-0.7-0.9-1.2-1.6-1.4c-0.7-0.3-1.4-0.2-2.1,0.1c-0.2,0.1-0.4,0.2-0.5,0.3
			c-0.3,0.2-0.7,0.4-1.1,0.4c-0.4,0-0.8-0.1-1.1-0.4c-1.3-1.1-3.1-1.3-4.6-0.6c-0.9,0.4-1.6,1-2,1.8c0.8,0.2,1.6,0.6,2.3,1.1
			C46.3,23.3,46.5,24.3,45.9,25.1z M5.2,47.1l9.2-19.9L14,27.1c-1.3-0.6-2.9,0-3.5,1.3l-7,15.2c-0.6,1.3,0,2.9,1.3,3.5L5.2,47.1z
			 M38.3,34.9l-1.7-0.8l-0.1,0.1L36.4,34l-1.5-0.7l-1-0.4l-15.2-7l0,0l-0.6,1.4v1.5l0,0v-1.5l-0.6,1.4L8.3,48.6l-0.4,0.9l-1.1,2.3
			l-0.1,0.2c-0.3,0.6-0.3,1.3-0.1,2c0.2,0.7,0.7,1.2,1.4,1.5l14.8,6.8c0.3,0.2,0.7,0.2,1.1,0.2c1,0,1.9-0.6,2.4-1.5l10.3-22.3l1-2.1
			l0.6-1.2L38.3,34.9z M40.3,30.5c0.3-1,0.3-2-0.1-2.9c-0.3-0.9-0.9-1.6-1.6-2.1c-0.2-0.1-0.4-0.3-0.7-0.4c-0.4-0.2-0.8-0.3-1.2-0.4
			c-0.9-0.1-1.7,0-2.5,0.4c-0.2,0.1-0.4,0.2-0.6,0.4c-0.8,0.5-1.9,0.4-2.4-0.4c-0.5-0.8-0.4-1.9,0.4-2.4c0.7-0.5,1.5-0.8,2.3-1.1
			c-0.4-0.8-1.1-1.4-2-1.8c-1.5-0.7-3.3-0.5-4.6,0.6c-0.1,0.1-0.2,0.2-0.3,0.2c-0.6,0.3-1.4,0.2-1.9-0.2c-0.2-0.1-0.3-0.2-0.5-0.3
			c-1.4-0.6-3,0-3.7,1.4l-0.7,1.4l12.9,5.9l1.7,0.8l1.9,0.9l2,0.9L40.3,30.5z M70.3,52l-0.1-0.2l0,0l0,0L69.8,51L59.6,28.8L58.3,26v0
			L43,33.1l-0.8,1.7l-1.8,3.8L50.7,61c0.4,0.9,1.4,1.5,2.4,1.5l0,0c0.4,0,0.7-0.1,1.1-0.2L69,55.5c0.6-0.3,1.1-0.8,1.4-1.5
			C70.6,53.3,70.6,52.6,70.3,52z M73.5,43.6l-7-15.2c-0.6-1.3-2.1-1.9-3.5-1.3l-0.3,0.2l9.2,19.9l0.3-0.2
			C73.6,46.5,74.1,44.9,73.5,43.6z M52.2,34.4c-0.4-0.9-1.4-1.3-2.3-0.8c-0.9,0.4-1.3,1.4-0.8,2.3l8.5,18.4c0.3,0.6,0.9,1,1.6,1
			c0.2,0,0.5-0.1,0.7-0.2c0.9-0.4,1.3-1.4,0.9-2.3L52.2,34.4z M57.8,31.8c-0.4-0.9-1.4-1.3-2.3-0.8c-0.9,0.4-1.3,1.4-0.9,2.3
			l8.5,18.4c0.3,0.6,0.9,1,1.6,1c0.2,0,0.5-0.1,0.7-0.2c0.9-0.4,1.3-1.4,0.8-2.3L57.8,31.8z M46.7,36.9c-0.4-0.9-1.4-1.2-2.3-0.8
			c-0.9,0.4-1.3,1.4-0.8,2.3L52,56.8c0.3,0.6,0.9,1,1.6,1c0.2,0,0.5-0.1,0.7-0.2c0.9-0.4,1.3-1.4,0.8-2.3L46.7,36.9z M27.1,33.4
			c-0.9-0.4-1.9,0-2.3,0.8l-8.5,18.4c-0.4,0.9,0,1.9,0.8,2.3c0.2,0.1,0.5,0.2,0.7,0.2c0.7,0,1.3-0.4,1.6-1L28,35.7
			C28.4,34.9,28,33.8,27.1,33.4z M32.7,36c-0.9-0.4-1.9,0-2.3,0.8l-8.5,18.4c-0.4,0.9,0,1.9,0.8,2.3c0.2,0.1,0.5,0.2,0.7,0.2
			c0.7,0,1.3-0.4,1.6-1l8.5-18.4C33.9,37.4,33.5,36.4,32.7,36z M38.6,14.9c1,0,1.7-0.8,1.7-1.7V1.7c0-1-0.8-1.7-1.7-1.7
			c-1,0-1.7,0.8-1.7,1.7v11.4C36.9,14.1,37.6,14.9,38.6,14.9z M45.2,13.2c0.2,0.1,0.5,0.2,0.7,0.2c0.6,0,1.3-0.4,1.6-1l3.1-6.5
			C51,5,50.7,4,49.8,3.6c-0.9-0.4-1.9,0-2.3,0.8l-3.1,6.5C44,11.8,44.3,12.8,45.2,13.2z M29.3,12.4c0.3,0.6,0.9,1,1.6,1
			c0.3,0,0.5-0.1,0.7-0.2c0.9-0.4,1.2-1.4,0.8-2.3l-3.1-6.5c-0.4-0.9-1.4-1.2-2.3-0.8S25.8,5,26.2,5.9L29.3,12.4z"/>
	</g>
</svg>